<svg width="2311" height="875" viewBox="0 0 2311 875" fill="none" xmlns="http://www.w3.org/2000/svg">
<path fill-rule="evenodd" clip-rule="evenodd" d="M1124.51 387.831C1124.51 372.076 1137.28 359.304 1153.04 359.304H1318.82C1334.57 359.304 1347.35 372.076 1347.35 387.831C1347.35 403.586 1334.57 416.358 1318.82 416.358H1153.04C1137.28 416.358 1124.51 403.586 1124.51 387.831Z" fill="white"/>
<path d="M1074.22 303.888C1090.89 303.888 1104.41 290.369 1104.41 273.691C1104.41 257.014 1090.89 243.494 1074.22 243.494C1057.54 243.494 1044.02 257.014 1044.02 273.691C1044.02 290.369 1057.54 303.888 1074.22 303.888Z" fill="white"/>
<path fill-rule="evenodd" clip-rule="evenodd" d="M732.385 206.836C748.627 206.836 761.794 220.003 761.794 236.245V504.395C761.794 520.638 748.627 533.805 732.385 533.805C716.142 533.805 702.976 520.638 702.976 504.395V236.245C702.976 220.003 716.142 206.836 732.385 206.836Z" fill="white"/>
<path fill-rule="evenodd" clip-rule="evenodd" d="M854.369 413.933C803.073 413.933 761.489 455.517 761.489 506.814C761.489 558.11 803.073 599.695 854.369 599.695C905.666 599.695 947.25 558.11 947.25 506.814C947.25 455.517 905.666 413.933 854.369 413.933ZM703.258 506.814C703.258 423.357 770.913 355.702 854.369 355.702C937.826 355.702 1005.48 423.357 1005.48 506.814C1005.48 590.27 937.826 657.925 854.369 657.925C770.913 657.925 703.258 590.27 703.258 506.814Z" fill="white"/>
<path fill-rule="evenodd" clip-rule="evenodd" d="M2036.91 208.642C2053.15 208.642 2066.32 221.809 2066.32 238.051V506.201C2066.32 522.443 2053.15 535.61 2036.91 535.61C2020.67 535.61 2007.5 522.443 2007.5 506.201V238.051C2007.5 221.809 2020.67 208.642 2036.91 208.642Z" fill="white"/>
<path fill-rule="evenodd" clip-rule="evenodd" d="M2158.9 413.933C2107.6 413.933 2066.01 455.517 2066.01 506.814C2066.01 558.11 2107.6 599.695 2158.9 599.695C2210.19 599.695 2251.78 558.11 2251.78 506.814C2251.78 455.517 2210.19 413.933 2158.9 413.933ZM2007.78 506.814C2007.78 423.357 2075.44 355.702 2158.9 355.702C2242.35 355.702 2310.01 423.357 2310.01 506.814C2310.01 590.27 2242.35 657.925 2158.9 657.925C2075.44 657.925 2007.78 590.27 2007.78 506.814Z" fill="white"/>
<path fill-rule="evenodd" clip-rule="evenodd" d="M1070.3 361.445C1086.54 361.445 1099.71 374.612 1099.71 390.855V632.128C1099.71 648.37 1086.54 661.537 1070.3 661.537C1054.06 661.537 1040.89 648.37 1040.89 632.128V390.855C1040.89 374.612 1054.06 361.445 1070.3 361.445Z" fill="white"/>
<path fill-rule="evenodd" clip-rule="evenodd" d="M1235.89 207.996C1251.16 207.893 1263.62 220.186 1263.73 235.453L1266.44 635.866C1266.55 651.133 1254.25 663.594 1238.99 663.698C1223.72 663.801 1211.26 651.508 1211.15 636.241L1208.44 235.828C1208.33 220.561 1220.63 208.1 1235.89 207.996Z" fill="white"/>
<path fill-rule="evenodd" clip-rule="evenodd" d="M1490.64 414.221C1439.34 414.221 1397.75 455.809 1397.75 507.109V634.843C1397.75 651.086 1384.58 664.253 1368.34 664.253C1352.1 664.253 1338.93 651.086 1338.93 634.843V507.109C1338.93 423.323 1406.86 355.402 1490.64 355.402C1574.43 355.402 1642.35 423.323 1642.35 507.109V634.843C1642.35 651.086 1629.18 664.253 1612.94 664.253C1596.7 664.253 1583.53 651.086 1583.53 634.843V507.109C1583.53 455.808 1541.94 414.221 1490.64 414.221Z" fill="white"/>
<path fill-rule="evenodd" clip-rule="evenodd" d="M1827.94 412.409C1775.14 412.409 1732.33 455.213 1732.33 508.016C1732.33 560.818 1775.14 603.623 1827.94 603.623C1880.74 603.623 1923.54 560.818 1923.54 508.016C1923.54 455.213 1880.74 412.409 1827.94 412.409ZM1673.51 508.016C1673.51 422.729 1742.65 353.59 1827.94 353.59C1913.22 353.59 1982.36 422.729 1982.36 508.016C1982.36 593.302 1913.22 662.441 1827.94 662.441C1742.65 662.441 1673.51 593.302 1673.51 508.016Z" fill="white"/>
<path d="M1100.59 803.596C1106.94 805.791 1112.14 809.429 1116.18 814.511C1120.34 819.478 1122.42 826.004 1122.42 834.089C1122.42 846.91 1118.67 856.092 1111.16 861.636C1103.77 867.065 1094.7 869.779 1083.96 869.779H1039.43C1037.12 869.779 1035.16 868.97 1033.54 867.353C1031.92 865.736 1031.11 863.773 1031.11 861.463V756.818C1031.11 754.507 1031.92 752.544 1033.54 750.927C1035.16 749.31 1037.12 748.501 1039.43 748.501H1083.96C1094.47 748.501 1102.44 751.1 1107.87 756.298C1113.41 761.495 1116.18 769.003 1116.18 778.821C1116.18 784.365 1114.85 789.331 1112.2 793.721C1109.54 797.994 1105.67 801.286 1100.59 803.596ZM1098.34 781.42C1098.34 775.991 1096.84 771.891 1093.83 769.119C1090.94 766.231 1086.84 764.787 1081.53 764.787H1048.79V798.572H1081.88C1086.61 798.456 1090.54 796.955 1093.66 794.067C1096.78 791.064 1098.34 786.848 1098.34 781.42ZM1083.78 853.84C1090.14 853.84 1095.22 852.223 1099.03 848.989C1102.84 845.639 1104.75 840.672 1104.75 834.089C1104.75 821.268 1097.47 814.858 1082.92 814.858H1048.79V853.84H1083.78Z" fill="white"/>
<path d="M1294.34 748.328C1296.77 748.328 1298.67 749.137 1300.06 750.754C1301.56 752.255 1302.31 754.219 1302.31 756.644V823.174C1302.31 832.298 1300.29 840.499 1296.25 847.776C1292.21 855.052 1286.6 860.77 1279.44 864.928C1272.4 868.97 1264.43 870.992 1255.53 870.992C1246.52 870.992 1238.44 868.97 1231.28 864.928C1224.12 860.77 1218.52 855.052 1214.47 847.776C1210.43 840.499 1208.41 832.298 1208.41 823.174V756.644C1208.41 754.219 1209.22 752.255 1210.83 750.754C1212.45 749.137 1214.53 748.328 1217.07 748.328C1219.27 748.328 1221.17 749.137 1222.79 750.754C1224.52 752.371 1225.39 754.334 1225.39 756.644V823.174C1225.39 829.18 1226.77 834.608 1229.55 839.46C1232.32 844.195 1236.01 847.891 1240.63 850.548C1245.25 853.204 1250.22 854.533 1255.53 854.533C1261.08 854.533 1266.22 853.204 1270.95 850.548C1275.69 847.891 1279.44 844.195 1282.21 839.46C1285.1 834.608 1286.55 829.18 1286.55 823.174V756.644C1286.55 754.219 1287.24 752.255 1288.63 750.754C1290.01 749.137 1291.92 748.328 1294.34 748.328Z" fill="white"/>
<path d="M1430.22 871.512C1421.78 871.512 1414.33 870.357 1407.87 868.046C1401.4 865.621 1395.22 861.752 1389.33 856.438C1386.9 854.359 1385.69 851.992 1385.69 849.335C1385.69 847.256 1386.5 845.408 1388.12 843.791C1389.73 842.058 1391.64 841.192 1393.83 841.192C1395.8 841.192 1397.47 841.827 1398.86 843.098C1403.48 847.372 1408.21 850.548 1413.06 852.627C1418.03 854.59 1423.63 855.572 1429.87 855.572C1437.15 855.572 1443.27 853.897 1448.23 850.548C1453.32 847.198 1455.86 842.982 1455.86 837.9C1455.74 831.894 1453.2 827.274 1448.23 824.04C1443.38 820.69 1435.93 817.918 1425.88 815.724C1413.99 813.298 1404.81 809.313 1398.34 803.769C1391.98 798.225 1388.81 790.544 1388.81 780.727C1388.81 773.912 1390.6 767.964 1394.18 762.881C1397.76 757.684 1402.73 753.699 1409.08 750.927C1415.43 748.155 1422.59 746.769 1430.56 746.769C1437.72 746.769 1444.48 747.924 1450.83 750.234C1457.19 752.544 1462.33 755.605 1466.25 759.416C1468.91 761.726 1470.24 764.21 1470.24 766.866C1470.24 768.945 1469.43 770.793 1467.81 772.41C1466.31 774.027 1464.46 774.836 1462.27 774.836C1460.65 774.836 1459.32 774.374 1458.28 773.45C1455.28 770.447 1451.12 767.906 1445.81 765.827C1440.5 763.748 1435.41 762.708 1430.56 762.708C1422.82 762.708 1416.64 764.325 1412.02 767.559C1407.52 770.678 1405.27 774.836 1405.27 780.034C1405.27 785.693 1407.52 790.025 1412.02 793.028C1416.64 796.031 1423.46 798.572 1432.47 800.651C1441.48 802.614 1448.81 804.924 1454.47 807.581C1460.25 810.237 1464.69 813.934 1467.81 818.669C1470.93 823.405 1472.49 829.584 1472.49 837.207C1472.49 843.906 1470.58 849.855 1466.77 855.052C1463.08 860.25 1457.99 864.293 1451.53 867.18C1445.06 870.068 1437.95 871.512 1430.22 871.512Z" fill="white"/>
<path d="M1575.58 861.29C1575.58 863.715 1574.71 865.736 1572.98 867.353C1571.25 868.97 1569.23 869.779 1566.92 869.779C1564.38 869.779 1562.3 868.97 1560.68 867.353C1559.18 865.736 1558.43 863.715 1558.43 861.29V756.818C1558.43 754.507 1559.24 752.544 1560.85 750.927C1562.47 749.31 1564.55 748.501 1567.09 748.501C1569.4 748.501 1571.37 749.31 1572.98 750.927C1574.71 752.544 1575.58 754.507 1575.58 756.818V861.29Z" fill="white"/>
<path d="M1759 748.501C1761.19 748.501 1762.98 749.252 1764.37 750.754C1765.75 752.14 1766.45 753.93 1766.45 756.125V861.29C1766.45 863.715 1765.64 865.736 1764.02 867.353C1762.52 868.97 1760.56 869.779 1758.13 869.779C1756.86 869.779 1755.59 869.606 1754.32 869.259C1753.16 868.797 1752.24 868.162 1751.55 867.353L1683.46 778.647V862.156C1683.46 864.35 1682.71 866.198 1681.21 867.7C1679.82 869.086 1678.03 869.779 1675.83 869.779C1673.64 869.779 1671.85 869.086 1670.46 867.7C1669.08 866.198 1668.38 864.35 1668.38 862.156V756.818C1668.38 754.392 1669.14 752.428 1670.64 750.927C1672.25 749.31 1674.22 748.501 1676.53 748.501C1677.91 748.501 1679.24 748.79 1680.51 749.368C1681.78 749.83 1682.76 750.523 1683.46 751.447L1751.37 840.326V756.125C1751.37 753.93 1752.07 752.14 1753.45 750.754C1754.95 749.252 1756.8 748.501 1759 748.501Z" fill="white"/>
<path d="M1927.99 853.84C1930.42 853.84 1932.38 854.648 1933.88 856.265C1935.5 857.882 1936.31 859.788 1936.31 861.983C1936.31 864.293 1935.5 866.198 1933.88 867.7C1932.38 869.086 1930.42 869.779 1927.99 869.779H1867.7C1865.39 869.779 1863.43 868.97 1861.81 867.353C1860.19 865.736 1859.38 863.773 1859.38 861.463V756.818C1859.38 754.507 1860.19 752.544 1861.81 750.927C1863.43 749.31 1865.39 748.501 1867.7 748.501H1927.99C1930.42 748.501 1932.38 749.252 1933.88 750.754C1935.5 752.255 1936.31 754.219 1936.31 756.644C1936.31 758.954 1935.5 760.86 1933.88 762.362C1932.38 763.748 1930.42 764.441 1927.99 764.441H1876.54V799.784H1920.2C1922.62 799.784 1924.58 800.535 1926.09 802.037C1927.7 803.538 1928.51 805.444 1928.51 807.754C1928.51 810.18 1927.7 812.085 1926.09 813.472C1924.58 814.858 1922.62 815.551 1920.2 815.551H1876.54V853.84H1927.99Z" fill="white"/>
<path d="M2059.03 871.512C2050.59 871.512 2043.14 870.357 2036.68 868.046C2030.21 865.621 2024.03 861.752 2018.14 856.438C2015.71 854.359 2014.5 851.992 2014.5 849.335C2014.5 847.256 2015.31 845.408 2016.93 843.791C2018.54 842.058 2020.45 841.192 2022.64 841.192C2024.61 841.192 2026.28 841.827 2027.67 843.098C2032.29 847.372 2037.02 850.548 2041.87 852.627C2046.84 854.59 2052.44 855.572 2058.68 855.572C2065.96 855.572 2072.08 853.897 2077.04 850.548C2082.13 847.198 2084.67 842.982 2084.67 837.9C2084.55 831.894 2082.01 827.274 2077.04 824.04C2072.19 820.69 2064.74 817.918 2054.69 815.724C2042.8 813.298 2033.62 809.313 2027.15 803.769C2020.79 798.225 2017.62 790.544 2017.62 780.727C2017.62 773.912 2019.41 767.964 2022.99 762.881C2026.57 757.684 2031.54 753.699 2037.89 750.927C2044.24 748.155 2051.4 746.769 2059.37 746.769C2066.53 746.769 2073.29 747.924 2079.64 750.234C2086 752.544 2091.14 755.605 2095.06 759.416C2097.72 761.726 2099.05 764.21 2099.05 766.866C2099.05 768.945 2098.24 770.793 2096.62 772.41C2095.12 774.027 2093.27 774.836 2091.08 774.836C2089.46 774.836 2088.13 774.374 2087.09 773.45C2084.09 770.447 2079.93 767.906 2074.62 765.827C2069.31 763.748 2064.22 762.708 2059.37 762.708C2051.63 762.708 2045.45 764.325 2040.83 767.559C2036.33 770.678 2034.08 774.836 2034.08 780.034C2034.08 785.693 2036.33 790.025 2040.83 793.028C2045.45 796.031 2052.27 798.572 2061.28 800.651C2070.29 802.614 2077.62 804.924 2083.28 807.581C2089.06 810.237 2093.5 813.934 2096.62 818.669C2099.74 823.405 2101.3 829.584 2101.3 837.207C2101.3 843.906 2099.39 849.855 2095.58 855.052C2091.89 860.25 2086.8 864.293 2080.34 867.18C2073.87 870.068 2066.77 871.512 2059.03 871.512Z" fill="white"/>
<path d="M2223.97 871.512C2215.54 871.512 2208.09 870.357 2201.62 868.046C2195.15 865.621 2188.97 861.752 2183.08 856.438C2180.66 854.359 2179.44 851.992 2179.44 849.335C2179.44 847.256 2180.25 845.408 2181.87 843.791C2183.49 842.058 2185.39 841.192 2187.59 841.192C2189.55 841.192 2191.22 841.827 2192.61 843.098C2197.23 847.372 2201.97 850.548 2206.82 852.627C2211.78 854.59 2217.39 855.572 2223.62 855.572C2230.9 855.572 2237.02 853.897 2241.99 850.548C2247.07 847.198 2249.61 842.982 2249.61 837.9C2249.5 831.894 2246.95 827.274 2241.99 824.04C2237.14 820.69 2229.69 817.918 2219.64 815.724C2207.74 813.298 2198.56 809.313 2192.09 803.769C2185.74 798.225 2182.56 790.544 2182.56 780.727C2182.56 773.912 2184.35 767.964 2187.93 762.881C2191.51 757.684 2196.48 753.699 2202.83 750.927C2209.19 748.155 2216.35 746.769 2224.32 746.769C2231.48 746.769 2238.23 747.924 2244.59 750.234C2250.94 752.544 2256.08 755.605 2260.01 759.416C2262.66 761.726 2263.99 764.21 2263.99 766.866C2263.99 768.945 2263.18 770.793 2261.57 772.41C2260.06 774.027 2258.22 774.836 2256.02 774.836C2254.4 774.836 2253.08 774.374 2252.04 773.45C2249.03 770.447 2244.88 767.906 2239.56 765.827C2234.25 763.748 2229.17 762.708 2224.32 762.708C2216.58 762.708 2210.4 764.325 2205.78 767.559C2201.27 770.678 2199.02 774.836 2199.02 780.034C2199.02 785.693 2201.27 790.025 2205.78 793.028C2210.4 796.031 2217.21 798.572 2226.22 800.651C2235.23 802.614 2242.57 804.924 2248.23 807.581C2254 810.237 2258.45 813.934 2261.57 818.669C2264.68 823.405 2266.24 829.584 2266.24 837.207C2266.24 843.906 2264.34 849.855 2260.53 855.052C2256.83 860.25 2251.75 864.293 2245.28 867.18C2238.81 870.068 2231.71 871.512 2223.97 871.512Z" fill="white"/>
<path fill-rule="evenodd" clip-rule="evenodd" d="M153.94 566.523C184.744 566.523 213.435 575.571 237.5 591.153C213.435 606.739 184.744 615.787 153.94 615.787C123.136 615.787 94.4454 606.739 70.3799 591.157C94.4454 575.571 123.136 566.523 153.94 566.523ZM412.572 566.523C443.376 566.523 472.066 575.571 496.132 591.153C472.066 606.739 443.376 615.787 412.572 615.787C381.768 615.787 353.077 606.739 329.012 591.157C353.077 575.571 381.768 566.523 412.572 566.523Z" fill="#00F9BE"/>
<path fill-rule="evenodd" clip-rule="evenodd" d="M307.895 461.844C307.895 492.647 298.847 521.338 283.265 545.404C267.679 521.338 258.632 492.647 258.632 461.844C258.632 431.04 267.679 402.349 283.261 378.283C298.847 402.349 307.895 431.04 307.895 461.844Z" fill="#00F9BE"/>
<path fill-rule="evenodd" clip-rule="evenodd" d="M307.895 720.476C307.895 751.28 298.847 779.971 283.265 804.036C267.679 779.971 258.632 751.28 258.632 720.476C258.632 689.672 267.679 660.982 283.261 636.916C298.847 660.982 307.895 689.672 307.895 720.476Z" fill="#00F9BE"/>
<path fill-rule="evenodd" clip-rule="evenodd" d="M153.947 307.891C208.167 307.891 255.839 335.92 283.266 378.278C267.679 402.344 258.632 431.035 258.632 461.838C258.632 492.642 267.679 521.333 283.261 545.398C271.421 563.691 255.801 579.312 237.507 591.157C255.801 602.997 271.421 618.617 283.266 636.91C267.679 660.976 258.632 689.666 258.632 720.47C258.632 751.274 267.679 779.965 283.261 804.03C255.839 846.389 208.167 874.418 153.947 874.418C68.9246 874.418 0 805.493 0 720.47C0 666.251 28.029 618.579 70.3875 591.152C28.029 563.73 0 516.057 0 461.838C0 376.816 68.9246 307.891 153.947 307.891ZM412.579 307.891C497.602 307.891 566.527 376.816 566.527 461.838C566.527 516.057 538.498 563.73 496.139 591.157C538.498 618.579 566.527 666.251 566.527 720.47C566.527 805.493 497.602 874.418 412.579 874.418C358.36 874.418 310.688 846.389 283.261 804.03C298.848 779.965 307.895 751.274 307.895 720.47C307.895 689.666 298.848 660.976 283.266 636.91C295.106 618.617 310.726 602.996 329.019 591.152C310.726 579.312 295.106 563.691 283.261 545.398C298.848 521.333 307.895 492.642 307.895 461.838C307.895 431.035 298.848 402.344 283.266 378.278C310.688 335.92 358.36 307.891 412.579 307.891ZM153.947 566.523C123.144 566.523 94.453 575.57 70.3875 591.152C94.453 606.739 123.144 615.786 153.947 615.786C184.751 615.786 213.442 606.739 237.507 591.157C213.442 575.57 184.751 566.523 153.947 566.523ZM412.579 566.523C381.775 566.523 353.085 575.57 329.019 591.152C353.085 606.739 381.775 615.786 412.579 615.786C443.383 615.786 472.074 606.739 496.139 591.157C472.074 575.57 443.383 566.523 412.579 566.523Z" fill="#00E4AF"/>
<path fill-rule="evenodd" clip-rule="evenodd" d="M153.947 307.895C238.97 307.895 307.895 238.97 307.895 153.947C307.895 68.9246 238.97 0 153.947 0C68.9246 0 0 68.9246 0 153.947C0 238.97 68.9246 307.895 153.947 307.895Z" fill="#00E4AF"/>
</svg>
